<svg width="24" height="24" viewBox="0 0 24 24" fill="none" xmlns="http://www.w3.org/2000/svg">
<path fill-rule="evenodd" clip-rule="evenodd" d="M17.694 6.30602C18.102 6.71405 18.102 7.37559 17.694 7.78361L13.4783 11.9993L17.694 16.2164C18.102 16.6244 18.102 17.286 17.694 17.694C17.286 18.102 16.6244 18.102 16.2164 17.694L12.0007 13.4769L7.78361 17.694C7.37559 18.102 6.71405 18.102 6.30602 17.694C5.89799 17.286 5.89799 16.6244 6.30602 16.2164L10.5231 11.9993L6.30602 7.78361C5.89799 7.37559 5.89799 6.71405 6.30602 6.30602C6.71405 5.89799 7.37559 5.89799 7.78361 6.30602L12.0007 10.5217L16.2164 6.30602C16.6244 5.89799 17.286 5.89799 17.694 6.30602Z" fill="#7E84A3"/>
</svg>
