<svg width="24" height="24" viewBox="0 0 24 24" fill="none" xmlns="http://www.w3.org/2000/svg">
  <path fill-rule="evenodd" clip-rule="evenodd"
    d="M19 19C19.5523 19 20 19.4477 20 20C20 20.5523 19.5523 21 19 21H5C4.44772 21 4 20.5523 4 20C4 19.4477 4.44772 19 5 19H19ZM18.003 3.58492L19.4151 4.99703C20.195 5.77692 20.195 7.04137 19.4151 7.82126L11.1778 16.0586C11.025 16.2114 10.8268 16.3105 10.6129 16.341L6 17L6.65899 12.3871C6.68954 12.1732 6.78864 11.975 6.94141 11.8222L15.1787 3.58492C15.9586 2.80503 17.2231 2.80503 18.003 3.58492ZM16.5909 4.99703L8.58911 12.9988L8.35399 14.646L10.0012 14.4109L18.003 6.40914L16.5909 4.99703Z"
    fill="#7E84A3" />
</svg>