<svg width="24" height="24" viewBox="0 0 24 24" fill="none" xmlns="http://www.w3.org/2000/svg">
  <path fill-rule="evenodd" clip-rule="evenodd"
    d="M6 15V17H4V15H6ZM19 15C19.5523 15 20 15.4477 20 16C20 16.5523 19.5523 17 19 17H9C8.44772 17 8 16.5523 8 16C8 15.4477 8.44772 15 9 15H19ZM6 11V13H4V11H6ZM19 11C19.5523 11 20 11.4477 20 12C20 12.5523 19.5523 13 19 13H9C8.44772 13 8 12.5523 8 12C8 11.4477 8.44772 11 9 11H19ZM6 7V9H4V7H6ZM19 7C19.5523 7 20 7.44772 20 8C20 8.55228 19.5523 9 19 9H9C8.44772 9 8 8.55228 8 8C8 7.44772 8.44772 7 9 7H19Z"
    fill="#7E84A3" />
</svg>