<svg width="25" height="24" viewBox="0 0 25 24" fill="none" xmlns="http://www.w3.org/2000/svg">
<path fill-rule="evenodd" clip-rule="evenodd" d="M12 0C5.37258 0 0 5.37258 0 12C0 18.6274 5.37258 24 12 24C18.6274 24 24 18.6274 24 12C24 5.37258 18.6274 0 12 0ZM12 4C16.4183 4 20 7.58172 20 12C20 16.4183 16.4183 20 12 20C7.58172 20 4 16.4183 4 12C4 7.58172 7.58172 4 12 4Z" fill="#D9E4FF"/>
<path fill-rule="evenodd" clip-rule="evenodd" d="M12.0711 0C18.6985 0 24.0711 5.37258 24.0711 12C24.0711 18.6274 18.6985 24 12.0711 24C8.84691 24 5.8204 22.7199 3.58579 20.4853C2.80474 19.7042 2.80474 18.4379 3.58579 17.6569C4.36684 16.8758 5.63317 16.8758 6.41421 17.6569C7.90612 19.1488 9.91868 20 12.0711 20C16.4893 20 20.0711 16.4183 20.0711 12C20.0711 7.58172 16.4893 4 12.0711 4C10.9665 4 10.0711 3.10457 10.0711 2C10.0711 0.89543 10.9665 0 12.0711 0Z" fill="#1E5EFF"/>
</svg>
