<svg width="60" height="60" viewBox="0 0 60 60" fill="none" xmlns="http://www.w3.org/2000/svg">
<path fill-rule="evenodd" clip-rule="evenodd" d="M30 0C46.5685 0 60 13.4315 60 30C60 46.5685 46.5685 60 30 60C13.4315 60 0 46.5685 0 30C0 13.4315 13.4315 0 30 0ZM30 4C15.6406 4 4 15.6406 4 30C4 44.3594 15.6406 56 30 56C44.3594 56 56 44.3594 56 30C56 15.6406 44.3594 4 30 4Z" fill="#D9E4FF"/>
<path fill-rule="evenodd" clip-rule="evenodd" d="M29.799 0C46.3675 0 59.799 13.4315 59.799 30C59.799 46.5685 46.3675 60 29.799 60C21.7359 60 14.1743 56.8017 8.58579 51.2132C7.80474 50.4322 7.80474 49.1658 8.58579 48.3848C9.36684 47.6037 10.6332 47.6037 11.4142 48.3848C16.26 53.2306 22.8077 56 29.799 56C44.1584 56 55.799 44.3594 55.799 30C55.799 15.6406 44.1584 4 29.799 4C28.6944 4 27.799 3.10457 27.799 2C27.799 0.89543 28.6944 0 29.799 0Z" fill="#1E5EFF"/>
</svg>
