<svg width="100" height="100" viewBox="0 0 100 100" fill="none" xmlns="http://www.w3.org/2000/svg">
<path fill-rule="evenodd" clip-rule="evenodd" d="M50 0C77.6142 0 100 22.3858 100 50C100 77.6142 77.6142 100 50 100C22.3858 100 0 77.6142 0 50C0 22.3858 22.3858 0 50 0ZM50 4C24.5949 4 4 24.5949 4 50C4 75.4051 24.5949 96 50 96C75.4051 96 96 75.4051 96 50C96 24.5949 75.4051 4 50 4Z" fill="#D9E4FF"/>
<path fill-rule="evenodd" clip-rule="evenodd" d="M49.9411 0C77.5554 0 99.9411 22.3858 99.9411 50C99.9411 77.6142 77.5554 100 49.9411 100C36.5015 100 23.9008 94.6703 14.5858 85.3553C13.8047 84.5743 13.8047 83.308 14.5858 82.5269C15.3668 81.7459 16.6332 81.7459 17.4142 82.5269C25.9865 91.0992 37.5733 96 49.9411 96C75.3462 96 95.9411 75.4051 95.9411 50C95.9411 24.5949 75.3462 4 49.9411 4C48.8366 4 47.9411 3.10457 47.9411 2C47.9411 0.89543 48.8366 0 49.9411 0Z" fill="#1E5EFF"/>
</svg>
