<svg width="40" height="40" viewBox="0 0 40 40" fill="none" xmlns="http://www.w3.org/2000/svg">
<path fill-rule="evenodd" clip-rule="evenodd" d="M20 0C31.0457 0 40 8.9543 40 20C40 31.0457 31.0457 40 20 40C8.9543 40 0 31.0457 0 20C0 8.9543 8.9543 0 20 0ZM20 4C11.1634 4 4 11.1634 4 20C4 28.8366 11.1634 36 20 36C28.8366 36 36 28.8366 36 20C36 11.1634 28.8366 4 20 4Z" fill="#D9E4FF"/>
<path fill-rule="evenodd" clip-rule="evenodd" d="M19.7279 0C30.7736 0 39.7279 8.9543 39.7279 20C39.7279 31.0457 30.7736 40 19.7279 40C14.3531 40 9.31101 37.8674 5.58579 34.1421C4.80474 33.3611 4.80474 32.0948 5.58579 31.3137C6.36684 30.5327 7.63317 30.5327 8.41421 31.3137C11.3967 34.2962 15.4249 36 19.7279 36C28.5645 36 35.7279 28.8366 35.7279 20C35.7279 11.1634 28.5645 4 19.7279 4C18.6234 4 17.7279 3.10457 17.7279 2C17.7279 0.89543 18.6234 0 19.7279 0Z" fill="#1E5EFF"/>
</svg>
