<svg width="24" height="24" viewBox="0 0 24 24" fill="none" xmlns="http://www.w3.org/2000/svg">
<path fill-rule="evenodd" clip-rule="evenodd" d="M8.75803 6.27872C9.00648 6.65161 8.90497 7.15489 8.5313 7.40283C6.77782 8.56626 5.625 10.5533 5.625 12.8087C5.625 16.3911 8.53515 19.2951 12.125 19.2951C15.7149 19.2951 18.625 16.3911 18.625 12.8087C18.625 10.5533 17.4722 8.56626 15.7187 7.40283C15.345 7.15489 15.2435 6.65161 15.492 6.27872C15.7404 5.90582 16.2447 5.80452 16.6184 6.05246C18.8056 7.50368 20.25 9.98769 20.25 12.8087C20.25 17.2866 16.6123 20.9167 12.125 20.9167C7.63769 20.9167 4 17.2866 4 12.8087C4 9.98769 5.44436 7.50368 7.63158 6.05246C8.00525 5.80452 8.50958 5.90582 8.75803 6.27872Z" fill="#7E84A3" stroke="#7E84A3" stroke-linecap="round" stroke-linejoin="round"/>
<path fill-rule="evenodd" clip-rule="evenodd" d="M12.125 3C12.5852 3 12.9583 3.3731 12.9583 3.83333V10.5C12.9583 10.9602 12.5852 11.3333 12.125 11.3333C11.6647 11.3333 11.2916 10.9602 11.2916 10.5V3.83333C11.2916 3.3731 11.6647 3 12.125 3Z" fill="#7E84A3" stroke="#7E84A3" stroke-linecap="round" stroke-linejoin="round"/>
</svg>
