<svg width="24" height="24" viewBox="0 0 24 24" fill="none" xmlns="http://www.w3.org/2000/svg">
  <path fill-rule="evenodd" clip-rule="evenodd"
    d="M17 11C19.0871 11 20.9253 12.0656 22.0002 13.6825L21.9993 17H14L13.999 18.952L14.0215 20H2V19C2 15.6863 4.68629 13 8 13C9.37834 13 10.6509 13.4657 11.6662 14.2518C12.662 12.3204 14.6768 11 17 11ZM8 15C6.26204 15 4.78296 16.1084 4.23109 17.6569L4.16936 17.8447L4.126 18H11.873L11.8362 17.8625C11.3827 16.3295 10.0355 15.1846 8.4051 15.0203L8.19987 15.0049L8 15ZM17 13C15.6048 13 14.3764 13.7144 13.6606 14.7973L13.535 15H20.464L20.3707 14.845C19.6927 13.7872 18.5304 13.0708 17.2007 13.005L17 13ZM8 4C10.2091 4 12 5.79086 12 8C12 10.2091 10.2091 12 8 12C5.79086 12 4 10.2091 4 8C4 5.79086 5.79086 4 8 4ZM17 4C18.6569 4 20 5.34315 20 7C20 8.65685 18.6569 10 17 10C15.3431 10 14 8.65685 14 7C14 5.34315 15.3431 4 17 4ZM8 6C6.89543 6 6 6.89543 6 8C6 9.10457 6.89543 10 8 10C9.10457 10 10 9.10457 10 8C10 6.89543 9.10457 6 8 6ZM17 6C16.7239 6 16 6 16 6C16 6 16 6.72386 16 7C16 7.27614 16 8 16 8C16 8 16.7239 8 17 8C17.2761 8 18 8 18 8C18 8 18 7.27614 18 7C18 6.86441 18 6 18 6C18 6 17.1356 6 17 6Z"
    fill="#7E84A3" />
</svg>