<svg width="208" height="39" viewBox="0 0 208 39" fill="none" xmlns="http://www.w3.org/2000/svg">
<ellipse cx="21.1289" cy="9.14062" rx="8.53125" ry="9.14062" fill="#F500F5"/>
<circle cx="9.55078" cy="29.8594" r="9.14062" fill="#4141F9"/>
<circle cx="32.707" cy="29.8594" r="9.14062" fill="#01F5F5"/>
<path d="M58.1444 29.1639V9.92985H65.7328C67.1917 9.92985 68.4345 10.2085 69.4613 10.7657C70.4881 11.3167 71.2708 12.0837 71.8092 13.0667C72.3539 14.0434 72.6263 15.1704 72.6263 16.4477C72.6263 17.7249 72.3508 18.8519 71.7998 19.8286C71.2488 20.8054 70.4506 21.5661 69.405 22.1108C68.3656 22.6555 67.1071 22.9279 65.6295 22.9279H60.7928V19.669H64.9721C65.7547 19.669 66.3996 19.5344 66.9068 19.2651C67.4202 18.9897 67.8021 18.6109 68.0526 18.1288C68.3093 17.6404 68.4376 17.08 68.4376 16.4477C68.4376 15.809 68.3093 15.2518 68.0526 14.7759C67.8021 14.2938 67.4202 13.9213 66.9068 13.6583C66.3934 13.3891 65.7422 13.2545 64.9533 13.2545H62.211V29.1639H58.1444ZM75.1926 29.1639V14.7384H79.0713V17.2553H79.2216C79.4845 16.36 79.9259 15.6838 80.5458 15.2267C81.1656 14.7634 81.8794 14.5318 82.6871 14.5318C82.8874 14.5318 83.1034 14.5443 83.3351 14.5693C83.5668 14.5944 83.7703 14.6288 83.9456 14.6726V18.2227C83.7577 18.1663 83.4979 18.1162 83.1661 18.0724C82.8342 18.0286 82.5306 18.0067 82.2551 18.0067C81.6665 18.0067 81.1406 18.135 80.6773 18.3917C80.2202 18.6422 79.8571 18.9928 79.5878 19.4436C79.3249 19.8944 79.1934 20.4141 79.1934 21.0026V29.1639H75.1926ZM91.8604 29.4457C90.4015 29.4457 89.1399 29.1358 88.0755 28.5159C87.0174 27.8898 86.2003 27.0195 85.6243 25.905C85.0483 24.7843 84.7603 23.4851 84.7603 22.0075C84.7603 20.5174 85.0483 19.2151 85.6243 18.1006C86.2003 16.9798 87.0174 16.1096 88.0755 15.4897C89.1399 14.8636 90.4015 14.5505 91.8604 14.5505C93.3192 14.5505 94.5777 14.8636 95.6358 15.4897C96.7002 16.1096 97.5204 16.9798 98.0964 18.1006C98.6724 19.2151 98.9605 20.5174 98.9605 22.0075C98.9605 23.4851 98.6724 24.7843 98.0964 25.905C97.5204 27.0195 96.7002 27.8898 95.6358 28.5159C94.5777 29.1358 93.3192 29.4457 91.8604 29.4457ZM91.8792 26.3464C92.5428 26.3464 93.0969 26.1586 93.5415 25.7829C93.986 25.401 94.321 24.8814 94.5464 24.2239C94.778 23.5665 94.8939 22.8183 94.8939 21.9793C94.8939 21.1403 94.778 20.3921 94.5464 19.7347C94.321 19.0773 93.986 18.5576 93.5415 18.1757C93.0969 17.7938 92.5428 17.6028 91.8792 17.6028C91.2092 17.6028 90.6457 17.7938 90.1887 18.1757C89.7379 18.5576 89.3966 19.0773 89.165 19.7347C88.9396 20.3921 88.8269 21.1403 88.8269 21.9793C88.8269 22.8183 88.9396 23.5665 89.165 24.2239C89.3966 24.8814 89.7379 25.401 90.1887 25.7829C90.6457 26.1586 91.2092 26.3464 91.8792 26.3464ZM101.562 14.7384H105.563V29.8777C105.563 30.9922 105.344 31.8938 104.905 32.5825C104.467 33.2712 103.838 33.7752 103.018 34.0946C102.204 34.4139 101.23 34.5735 100.097 34.5735C99.9591 34.5735 99.8276 34.5704 99.7024 34.5641C99.5709 34.5641 99.4332 34.561 99.2892 34.5547V31.4273C99.3956 31.4336 99.4895 31.4367 99.5709 31.4367C99.6461 31.443 99.7274 31.4461 99.8151 31.4461C100.46 31.4461 100.911 31.3084 101.167 31.0329C101.43 30.7637 101.562 30.3567 101.562 29.812V14.7384ZM103.553 12.8788C102.964 12.8788 102.457 12.6816 102.032 12.2872C101.606 11.8864 101.393 11.4075 101.393 10.8502C101.393 10.2993 101.606 9.82654 102.032 9.43209C102.457 9.03138 102.964 8.83103 103.553 8.83103C104.154 8.83103 104.664 9.03138 105.084 9.43209C105.51 9.82654 105.722 10.2993 105.722 10.8502C105.722 11.4075 105.51 11.8864 105.084 12.2872C104.664 12.6816 104.154 12.8788 103.553 12.8788ZM115.342 29.4457C113.858 29.4457 112.581 29.1452 111.51 28.5441C110.446 27.9368 109.625 27.079 109.049 25.9708C108.473 24.8563 108.185 23.5383 108.185 22.0169C108.185 20.533 108.473 19.2307 109.049 18.11C109.625 16.9892 110.436 16.1158 111.482 15.4897C112.534 14.8636 113.767 14.5505 115.182 14.5505C116.134 14.5505 117.02 14.7039 117.84 15.0107C118.666 15.3113 119.387 15.7652 120 16.3725C120.62 16.9798 121.102 17.7437 121.446 18.6641C121.791 19.5782 121.963 20.6488 121.963 21.876V22.9748H109.782V20.4955H118.197C118.197 19.9194 118.072 19.4092 117.821 18.9646C117.571 18.5201 117.223 18.1726 116.779 17.9221C116.34 17.6654 115.83 17.5371 115.248 17.5371C114.641 17.5371 114.102 17.678 113.633 17.9597C113.169 18.2352 112.806 18.6077 112.543 19.0773C112.28 19.5406 112.146 20.0572 112.139 20.6269V22.9842C112.139 23.698 112.271 24.3147 112.534 24.8344C112.803 25.3541 113.182 25.7548 113.67 26.0365C114.158 26.3183 114.738 26.4591 115.408 26.4591C115.852 26.4591 116.259 26.3965 116.628 26.2713C116.998 26.1461 117.314 25.9583 117.577 25.7078C117.84 25.4574 118.04 25.1506 118.178 24.7874L121.878 25.0316C121.691 25.9207 121.306 26.6971 120.723 27.3607C120.147 28.0182 119.402 28.5316 118.488 28.901C117.58 29.2641 116.531 29.4457 115.342 29.4457ZM131.092 29.4457C129.614 29.4457 128.343 29.1326 127.279 28.5065C126.22 27.8742 125.407 26.9976 124.837 25.8769C124.273 24.7561 123.992 23.4663 123.992 22.0075C123.992 20.5299 124.276 19.2338 124.846 18.1194C125.422 16.9986 126.239 16.1252 127.297 15.4991C128.356 14.8667 129.614 14.5505 131.073 14.5505C132.331 14.5505 133.433 14.7791 134.379 15.2361C135.324 15.6932 136.072 16.335 136.623 17.1614C137.174 17.9879 137.478 18.9584 137.534 20.0728H133.759C133.652 19.3528 133.371 18.7736 132.914 18.3354C132.463 17.8908 131.871 17.6686 131.139 17.6686C130.519 17.6686 129.977 17.8376 129.514 18.1757C129.057 18.5076 128.7 18.9928 128.443 19.6314C128.186 20.2701 128.058 21.0433 128.058 21.9512C128.058 22.8715 128.183 23.6542 128.434 24.2991C128.69 24.944 129.051 25.4355 129.514 25.7736C129.977 26.1117 130.519 26.2807 131.139 26.2807C131.596 26.2807 132.006 26.1868 132.369 25.999C132.738 25.8111 133.042 25.5388 133.28 25.1819C133.524 24.8187 133.684 24.3836 133.759 23.8764H137.534C137.472 24.9784 137.171 25.9489 136.633 26.7879C136.101 27.6206 135.365 28.2717 134.426 28.7413C133.486 29.2109 132.375 29.4457 131.092 29.4457ZM147.769 14.7384V17.7437H139.082V14.7384H147.769ZM141.054 11.2822H145.055V24.7311C145.055 25.1005 145.111 25.3885 145.224 25.5951C145.336 25.7955 145.493 25.9363 145.693 26.0177C145.9 26.0991 146.138 26.1398 146.407 26.1398C146.595 26.1398 146.783 26.1242 146.971 26.0929C147.158 26.0553 147.302 26.0271 147.403 26.0083L148.032 28.9855C147.831 29.0481 147.55 29.1201 147.187 29.2015C146.823 29.2892 146.382 29.3424 145.862 29.3612C144.898 29.3987 144.053 29.2704 143.327 28.9761C142.607 28.6818 142.046 28.2248 141.645 27.6049C141.245 26.9851 141.048 26.2024 141.054 25.257V11.2822ZM152.516 29.3424C152.003 29.3424 151.562 29.1608 151.192 28.7977C150.823 28.4283 150.638 27.9837 150.638 27.4641C150.638 26.9506 150.823 26.5124 151.192 26.1492C151.562 25.7798 152.003 25.5951 152.516 25.5951C153.03 25.5951 153.471 25.7798 153.841 26.1492C154.21 26.5124 154.395 26.9506 154.395 27.4641C154.395 27.8084 154.307 28.1246 154.132 28.4126C153.963 28.6944 153.737 28.9198 153.455 29.0888C153.174 29.2579 152.861 29.3424 152.516 29.3424ZM164.117 29.4269C162.828 29.4269 161.676 29.2046 160.661 28.7601C159.653 28.3156 158.855 27.6988 158.266 26.9099C157.684 26.1148 157.371 25.1944 157.327 24.1488H160.276C160.314 24.7186 160.505 25.2132 160.849 25.6327C161.2 26.0459 161.657 26.3652 162.22 26.5906C162.784 26.816 163.41 26.9287 164.099 26.9287C164.856 26.9287 165.526 26.7972 166.108 26.5343C166.697 26.2713 167.157 25.905 167.489 25.4355C167.821 24.9596 167.987 24.4118 167.987 23.7919C167.987 23.147 167.821 22.5804 167.489 22.092C167.163 21.5974 166.684 21.2092 166.052 20.9275C165.426 20.6457 164.668 20.5048 163.779 20.5048H162.154V18.1381H163.779C164.493 18.1381 165.119 18.0098 165.658 17.7531C166.202 17.4964 166.628 17.1395 166.935 16.6824C167.242 16.2191 167.395 15.6775 167.395 15.0577C167.395 14.4629 167.26 13.9463 166.991 13.5081C166.728 13.0635 166.353 12.716 165.864 12.4656C165.382 12.2152 164.812 12.0899 164.155 12.0899C163.529 12.0899 162.943 12.2058 162.399 12.4374C161.86 12.6628 161.422 12.9884 161.084 13.4142C160.746 13.8336 160.564 14.3377 160.539 14.9262H157.731C157.762 13.8869 158.069 12.9727 158.651 12.1838C159.24 11.3949 160.016 10.7782 160.981 10.3337C161.945 9.88915 163.015 9.66688 164.192 9.66688C165.426 9.66688 166.49 9.90794 167.386 10.39C168.287 10.8659 168.982 11.5014 169.471 12.2965C169.965 13.0917 170.209 13.962 170.203 14.9074C170.209 15.9843 169.909 16.8985 169.302 17.6498C168.7 18.4011 167.899 18.9051 166.897 19.1618V19.3121C168.175 19.5062 169.164 20.0133 169.865 20.8336C170.573 21.6538 170.923 22.6712 170.917 23.8858C170.923 24.944 170.629 25.8925 170.034 26.7315C169.446 27.5705 168.641 28.231 167.62 28.7131C166.6 29.189 165.432 29.4269 164.117 29.4269ZM181.182 29.4269C180.324 29.4144 179.479 29.2579 178.646 28.9573C177.82 28.6568 177.068 28.1559 176.392 27.4547C175.716 26.7534 175.174 25.8111 174.767 24.6278C174.367 23.4444 174.166 21.9668 174.166 20.1949C174.166 18.5169 174.332 17.0268 174.664 15.7245C175.002 14.4222 175.487 13.3234 176.12 12.428C176.752 11.5264 177.516 10.8408 178.411 10.3713C179.307 9.90168 180.312 9.66688 181.426 9.66688C182.572 9.66688 183.589 9.89228 184.478 10.3431C185.368 10.7939 186.088 11.4169 186.639 12.212C187.196 13.0072 187.549 13.9119 187.7 14.9262H184.835C184.641 14.1248 184.256 13.4705 183.68 12.9634C183.104 12.4562 182.353 12.2026 181.426 12.2026C180.017 12.2026 178.919 12.8162 178.13 14.0434C177.347 15.2706 176.953 16.9767 176.946 19.1618H177.087C177.419 18.6171 177.826 18.1538 178.308 17.7719C178.796 17.3837 179.341 17.0863 179.942 16.8797C180.55 16.6668 181.188 16.5604 181.858 16.5604C182.973 16.5604 183.981 16.8327 184.882 17.3774C185.79 17.9159 186.513 18.661 187.052 19.6126C187.59 20.5643 187.859 21.6538 187.859 22.8809C187.859 24.1081 187.581 25.2194 187.024 26.215C186.473 27.2105 185.696 27.9994 184.694 28.5817C183.693 29.1577 182.522 29.4394 181.182 29.4269ZM181.173 26.9851C181.911 26.9851 182.572 26.8035 183.154 26.4404C183.736 26.0772 184.197 25.5889 184.535 24.9753C184.873 24.3617 185.042 23.6761 185.042 22.9185C185.042 22.1797 184.876 21.5066 184.544 20.8993C184.219 20.292 183.768 19.8099 183.192 19.453C182.622 19.0961 181.971 18.9177 181.238 18.9177C180.681 18.9177 180.165 19.0241 179.689 19.237C179.219 19.4498 178.806 19.7441 178.449 20.1198C178.092 20.4955 177.81 20.9275 177.604 21.4158C177.403 21.8979 177.303 22.4082 177.303 22.9467C177.303 23.6667 177.469 24.3335 177.801 24.9471C178.139 25.5607 178.599 26.0553 179.182 26.431C179.77 26.8004 180.434 26.9851 181.173 26.9851ZM197.977 29.4833C196.493 29.477 195.225 29.0857 194.173 28.3093C193.121 27.5329 192.317 26.4028 191.759 24.9189C191.202 23.435 190.923 21.6475 190.923 19.5563C190.923 17.4713 191.202 15.6901 191.759 14.2124C192.323 12.7348 193.13 11.6078 194.182 10.8314C195.24 10.0551 196.505 9.66688 197.977 9.66688C199.448 9.66688 200.71 10.0582 201.761 10.8408C202.813 11.6172 203.618 12.7442 204.175 14.2218C204.739 15.6932 205.02 17.4713 205.02 19.5563C205.02 21.6538 204.742 23.4444 204.184 24.9283C203.627 26.4059 202.823 27.5361 201.771 28.3187C200.719 29.0951 199.454 29.4833 197.977 29.4833ZM197.977 26.9757C199.279 26.9757 200.296 26.3402 201.029 25.0692C201.768 23.7982 202.137 21.9605 202.137 19.5563C202.137 17.9597 201.968 16.6104 201.63 15.5085C201.298 14.4003 200.819 13.5613 200.193 12.9915C199.573 12.4155 198.834 12.1275 197.977 12.1275C196.681 12.1275 195.663 12.7661 194.924 14.0434C194.185 15.3207 193.813 17.1583 193.807 19.5563C193.807 21.1591 193.973 22.5147 194.304 23.6229C194.643 24.7248 195.122 25.5607 195.741 26.1304C196.361 26.6939 197.106 26.9757 197.977 26.9757Z" fill="black"/>
</svg>
