<svg width="84" height="109" viewBox="0 0 84 109" fill="none" xmlns="http://www.w3.org/2000/svg">
<path fill-rule="evenodd" clip-rule="evenodd" d="M78 0.979736L6 1L6 61.6707C6 62.2201 78 61.9838 78 61.6707V0.979736Z" fill="#D7DBEC"/>
<path fill-rule="evenodd" clip-rule="evenodd" d="M84 9H0V109L5.5 103L10.5 109L16 103L21 109L26.5 103L31.5 109L37 103L42 109L47.5 103L52.5 109L58 103L63 109L68.5 103L73.5 109L79 103L84 109V9Z" fill="#336DFF"/>
<path d="M21.6466 28.5276L24.3536 31.4725L15.3589 39.7403L10.6191 35.216L13.381 32.3226L15.4101 34.26L21.6466 28.5276Z" fill="white"/>
<rect x="32" y="32" width="38" height="4" fill="white"/>
<path d="M21.6466 45.5276L24.3536 48.4725L15.3589 56.7403L10.6191 52.216L13.381 49.3226L15.4101 51.26L21.6466 45.5276Z" fill="white"/>
<rect x="32" y="49" width="38" height="4" fill="white"/>
<path d="M21.6466 62.5276L24.3536 65.4725L15.3589 73.7403L10.6191 69.216L13.381 66.3226L15.4101 68.26L21.6466 62.5276Z" fill="white"/>
<rect x="32" y="66" width="38" height="4" fill="white"/>
</svg>
