<svg width="56" height="56" viewBox="0 0 56 56" fill="none" xmlns="http://www.w3.org/2000/svg">
<circle cx="28" cy="28" r="28" fill="#ECF2FF"/>
<path fill-rule="evenodd" clip-rule="evenodd" d="M33 27C35.0871 27 36.9253 28.0656 38.0002 29.6825L37.9993 33H30L29.999 34.952L30.0215 36H18V35C18 31.6863 20.6863 29 24 29C25.3783 29 26.6509 29.4657 27.6662 30.2518C28.662 28.3204 30.6768 27 33 27ZM24 31C22.262 31 20.783 32.1084 20.2311 33.6569L20.1694 33.8447L20.126 34H27.873L27.8362 33.8625C27.3827 32.3295 26.0355 31.1846 24.4051 31.0203L24.1999 31.0049L24 31ZM33 29C31.6048 29 30.3764 29.7144 29.6606 30.7973L29.535 31H36.464L36.3707 30.845C35.6927 29.7872 34.5304 29.0708 33.2007 29.005L33 29ZM24 20C26.2091 20 28 21.7909 28 24C28 26.2091 26.2091 28 24 28C21.7909 28 20 26.2091 20 24C20 21.7909 21.7909 20 24 20ZM33 20C34.6569 20 36 21.3431 36 23C36 24.6569 34.6569 26 33 26C31.3431 26 30 24.6569 30 23C30 21.3431 31.3431 20 33 20ZM24 22C22.8954 22 22 22.8954 22 24C22 25.1046 22.8954 26 24 26C25.1046 26 26 25.1046 26 24C26 22.8954 25.1046 22 24 22ZM33 22C32.7239 22 32 22 32 22C32 22 32 22.7239 32 23C32 23.2761 32 24 32 24C32 24 32.7239 24 33 24C33.2761 24 34 24 34 24C34 24 34 23.2761 34 23C34 22.8644 34 22 34 22C34 22 33.1356 22 33 22Z" fill="#1E5EFF"/>
</svg>
